<svg xmlns="http://www.w3.org/2000/svg" viewBox="0 0 600 600" width="600" height="600" fill="currentColor" style="color:#d0bcff" role="img" aria-label="Radial halftone">
<g>
<circle cx="48.0" cy="237.0" r="0.46"/>
<circle cx="48.0" cy="258.0" r="0.52"/>
<circle cx="48.0" cy="279.0" r="0.56"/>
<circle cx="48.0" cy="300.0" r="0.58"/>
<circle cx="48.0" cy="321.0" r="0.56"/>
<circle cx="48.0" cy="342.0" r="0.52"/>
<circle cx="48.0" cy="363.0" r="0.46"/>
<circle cx="69.0" cy="174.0" r="0.41"/>
<circle cx="69.0" cy="195.0" r="0.55"/>
<circle cx="69.0" cy="216.0" r="0.68"/>
<circle cx="69.0" cy="237.0" r="0.8"/>
<circle cx="69.0" cy="258.0" r="0.88"/>
<circle cx="69.0" cy="279.0" r="0.94"/>
<circle cx="69.0" cy="300.0" r="0.96"/>
<circle cx="69.0" cy="321.0" r="0.94"/>
<circle cx="69.0" cy="342.0" r="0.88"/>
<circle cx="69.0" cy="363.0" r="0.8"/>
<circle cx="69.0" cy="384.0" r="0.68"/>
<circle cx="69.0" cy="405.0" r="0.55"/>
<circle cx="69.0" cy="426.0" r="0.41"/>
<circle cx="90.0" cy="153.0" r="0.51"/>
<circle cx="90.0" cy="174.0" r="0.7"/>
<circle cx="90.0" cy="195.0" r="0.88"/>
<circle cx="90.0" cy="216.0" r="1.06"/>
<circle cx="90.0" cy="237.0" r="1.21"/>
<circle cx="90.0" cy="258.0" r="1.32"/>
<circle cx="90.0" cy="279.0" r="1.4"/>
<circle cx="90.0" cy="300.0" r="1.42"/>
<circle cx="90.0" cy="321.0" r="1.4"/>
<circle cx="90.0" cy="342.0" r="1.32"/>
<circle cx="90.0" cy="363.0" r="1.21"/>
<circle cx="90.0" cy="384.0" r="1.06"/>
<circle cx="90.0" cy="405.0" r="0.88"/>
<circle cx="90.0" cy="426.0" r="0.7"/>
<circle cx="90.0" cy="447.0" r="0.51"/>
<circle cx="111.0" cy="132.0" r="0.56"/>
<circle cx="111.0" cy="153.0" r="0.8"/>
<circle cx="111.0" cy="174.0" r="1.04"/>
<circle cx="111.0" cy="195.0" r="1.28"/>
<circle cx="111.0" cy="216.0" r="1.5"/>
<circle cx="111.0" cy="237.0" r="1.68"/>
<circle cx="111.0" cy="258.0" r="1.83"/>
<circle cx="111.0" cy="279.0" r="1.92"/>
<circle cx="111.0" cy="300.0" r="1.95"/>
<circle cx="111.0" cy="321.0" r="1.92"/>
<circle cx="111.0" cy="342.0" r="1.83"/>
<circle cx="111.0" cy="363.0" r="1.68"/>
<circle cx="111.0" cy="384.0" r="1.5"/>
<circle cx="111.0" cy="405.0" r="1.28"/>
<circle cx="111.0" cy="426.0" r="1.04"/>
<circle cx="111.0" cy="447.0" r="0.8"/>
<circle cx="111.0" cy="468.0" r="0.56"/>
<circle cx="132.0" cy="111.0" r="0.56"/>
<circle cx="132.0" cy="132.0" r="0.83"/>
<circle cx="132.0" cy="153.0" r="1.12"/>
<circle cx="132.0" cy="174.0" r="1.42"/>
<circle cx="132.0" cy="195.0" r="1.71"/>
<circle cx="132.0" cy="216.0" r="1.98"/>
<circle cx="132.0" cy="237.0" r="2.22"/>
<circle cx="132.0" cy="258.0" r="2.4"/>
<circle cx="132.0" cy="279.0" r="2.51"/>
<circle cx="132.0" cy="300.0" r="2.55"/>
<circle cx="132.0" cy="321.0" r="2.51"/>
<circle cx="132.0" cy="342.0" r="2.4"/>
<circle cx="132.0" cy="363.0" r="2.22"/>
<circle cx="132.0" cy="384.0" r="1.98"/>
<circle cx="132.0" cy="405.0" r="1.71"/>
<circle cx="132.0" cy="426.0" r="1.42"/>
<circle cx="132.0" cy="447.0" r="1.12"/>
<circle cx="132.0" cy="468.0" r="0.83"/>
<circle cx="132.0" cy="489.0" r="0.56"/>
<circle cx="153.0" cy="90.0" r="0.51"/>
<circle cx="153.0" cy="111.0" r="0.8"/>
<circle cx="153.0" cy="132.0" r="1.12"/>
<circle cx="153.0" cy="153.0" r="1.47"/>
<circle cx="153.0" cy="174.0" r="1.83"/>
<circle cx="153.0" cy="195.0" r="2.18"/>
<circle cx="153.0" cy="216.0" r="2.51"/>
<circle cx="153.0" cy="237.0" r="2.8"/>
<circle cx="153.0" cy="258.0" r="3.02"/>
<circle cx="153.0" cy="279.0" r="3.17"/>
<circle cx="153.0" cy="300.0" r="3.22"/>
<circle cx="153.0" cy="321.0" r="3.17"/>
<circle cx="153.0" cy="342.0" r="3.02"/>
<circle cx="153.0" cy="363.0" r="2.8"/>
<circle cx="153.0" cy="384.0" r="2.51"/>
<circle cx="153.0" cy="405.0" r="2.18"/>
<circle cx="153.0" cy="426.0" r="1.83"/>
<circle cx="153.0" cy="447.0" r="1.47"/>
<circle cx="153.0" cy="468.0" r="1.12"/>
<circle cx="153.0" cy="489.0" r="0.8"/>
<circle cx="153.0" cy="510.0" r="0.51"/>
<circle cx="174.0" cy="69.0" r="0.41"/>
<circle cx="174.0" cy="90.0" r="0.7"/>
<circle cx="174.0" cy="111.0" r="1.04"/>
<circle cx="174.0" cy="132.0" r="1.42"/>
<circle cx="174.0" cy="153.0" r="1.83"/>
<circle cx="174.0" cy="174.0" r="2.25"/>
<circle cx="174.0" cy="195.0" r="2.67"/>
<circle cx="174.0" cy="216.0" r="3.07"/>
<circle cx="174.0" cy="237.0" r="3.42"/>
<circle cx="174.0" cy="258.0" r="3.7"/>
<circle cx="174.0" cy="279.0" r="3.88"/>
<circle cx="174.0" cy="300.0" r="3.94"/>
<circle cx="174.0" cy="321.0" r="3.88"/>
<circle cx="174.0" cy="342.0" r="3.7"/>
<circle cx="174.0" cy="363.0" r="3.42"/>
<circle cx="174.0" cy="384.0" r="3.07"/>
<circle cx="174.0" cy="405.0" r="2.67"/>
<circle cx="174.0" cy="426.0" r="2.25"/>
<circle cx="174.0" cy="447.0" r="1.83"/>
<circle cx="174.0" cy="468.0" r="1.42"/>
<circle cx="174.0" cy="489.0" r="1.04"/>
<circle cx="174.0" cy="510.0" r="0.7"/>
<circle cx="174.0" cy="531.0" r="0.41"/>
<circle cx="195.0" cy="69.0" r="0.55"/>
<circle cx="195.0" cy="90.0" r="0.88"/>
<circle cx="195.0" cy="111.0" r="1.28"/>
<circle cx="195.0" cy="132.0" r="1.71"/>
<circle cx="195.0" cy="153.0" r="2.18"/>
<circle cx="195.0" cy="174.0" r="2.67"/>
<circle cx="195.0" cy="195.0" r="3.17"/>
<circle cx="195.0" cy="216.0" r="3.64"/>
<circle cx="195.0" cy="237.0" r="4.07"/>
<circle cx="195.0" cy="258.0" r="4.42"/>
<circle cx="195.0" cy="279.0" r="4.65"/>
<circle cx="195.0" cy="300.0" r="4.73"/>
<circle cx="195.0" cy="321.0" r="4.65"/>
<circle cx="195.0" cy="342.0" r="4.42"/>
<circle cx="195.0" cy="363.0" r="4.07"/>
<circle cx="195.0" cy="384.0" r="3.64"/>
<circle cx="195.0" cy="405.0" r="3.17"/>
<circle cx="195.0" cy="426.0" r="2.67"/>
<circle cx="195.0" cy="447.0" r="2.18"/>
<circle cx="195.0" cy="468.0" r="1.71"/>
<circle cx="195.0" cy="489.0" r="1.28"/>
<circle cx="195.0" cy="510.0" r="0.88"/>
<circle cx="195.0" cy="531.0" r="0.55"/>
<circle cx="216.0" cy="69.0" r="0.68"/>
<circle cx="216.0" cy="90.0" r="1.06"/>
<circle cx="216.0" cy="111.0" r="1.5"/>
<circle cx="216.0" cy="132.0" r="1.98"/>
<circle cx="216.0" cy="153.0" r="2.51"/>
<circle cx="216.0" cy="174.0" r="3.07"/>
<circle cx="216.0" cy="195.0" r="3.64"/>
<circle cx="216.0" cy="216.0" r="4.21"/>
<circle cx="216.0" cy="237.0" r="4.73"/>
<circle cx="216.0" cy="258.0" r="5.17"/>
<circle cx="216.0" cy="279.0" r="5.47"/>
<circle cx="216.0" cy="300.0" r="5.57"/>
<circle cx="216.0" cy="321.0" r="5.47"/>
<circle cx="216.0" cy="342.0" r="5.17"/>
<circle cx="216.0" cy="363.0" r="4.73"/>
<circle cx="216.0" cy="384.0" r="4.21"/>
<circle cx="216.0" cy="405.0" r="3.64"/>
<circle cx="216.0" cy="426.0" r="3.07"/>
<circle cx="216.0" cy="447.0" r="2.51"/>
<circle cx="216.0" cy="468.0" r="1.98"/>
<circle cx="216.0" cy="489.0" r="1.5"/>
<circle cx="216.0" cy="510.0" r="1.06"/>
<circle cx="216.0" cy="531.0" r="0.68"/>
<circle cx="237.0" cy="48.0" r="0.46"/>
<circle cx="237.0" cy="69.0" r="0.8"/>
<circle cx="237.0" cy="90.0" r="1.21"/>
<circle cx="237.0" cy="111.0" r="1.68"/>
<circle cx="237.0" cy="132.0" r="2.22"/>
<circle cx="237.0" cy="153.0" r="2.8"/>
<circle cx="237.0" cy="174.0" r="3.42"/>
<circle cx="237.0" cy="195.0" r="4.07"/>
<circle cx="237.0" cy="216.0" r="4.73"/>
<circle cx="237.0" cy="237.0" r="5.36"/>
<circle cx="237.0" cy="258.0" r="5.92"/>
<circle cx="237.0" cy="279.0" r="6.32"/>
<circle cx="237.0" cy="300.0" r="6.47"/>
<circle cx="237.0" cy="321.0" r="6.32"/>
<circle cx="237.0" cy="342.0" r="5.92"/>
<circle cx="237.0" cy="363.0" r="5.36"/>
<circle cx="237.0" cy="384.0" r="4.73"/>
<circle cx="237.0" cy="405.0" r="4.07"/>
<circle cx="237.0" cy="426.0" r="3.42"/>
<circle cx="237.0" cy="447.0" r="2.8"/>
<circle cx="237.0" cy="468.0" r="2.22"/>
<circle cx="237.0" cy="489.0" r="1.68"/>
<circle cx="237.0" cy="510.0" r="1.21"/>
<circle cx="237.0" cy="531.0" r="0.8"/>
<circle cx="237.0" cy="552.0" r="0.46"/>
<circle cx="258.0" cy="48.0" r="0.52"/>
<circle cx="258.0" cy="69.0" r="0.88"/>
<circle cx="258.0" cy="90.0" r="1.32"/>
<circle cx="258.0" cy="111.0" r="1.83"/>
<circle cx="258.0" cy="132.0" r="2.4"/>
<circle cx="258.0" cy="153.0" r="3.02"/>
<circle cx="258.0" cy="174.0" r="3.7"/>
<circle cx="258.0" cy="195.0" r="4.42"/>
<circle cx="258.0" cy="216.0" r="5.17"/>
<circle cx="258.0" cy="237.0" r="5.92"/>
<circle cx="258.0" cy="258.0" r="6.63"/>
<circle cx="258.0" cy="279.0" r="7.2"/>
<circle cx="258.0" cy="300.0" r="7.43"/>
<circle cx="258.0" cy="321.0" r="7.2"/>
<circle cx="258.0" cy="342.0" r="6.63"/>
<circle cx="258.0" cy="363.0" r="5.92"/>
<circle cx="258.0" cy="384.0" r="5.17"/>
<circle cx="258.0" cy="405.0" r="4.42"/>
<circle cx="258.0" cy="426.0" r="3.7"/>
<circle cx="258.0" cy="447.0" r="3.02"/>
<circle cx="258.0" cy="468.0" r="2.4"/>
<circle cx="258.0" cy="489.0" r="1.83"/>
<circle cx="258.0" cy="510.0" r="1.32"/>
<circle cx="258.0" cy="531.0" r="0.88"/>
<circle cx="258.0" cy="552.0" r="0.52"/>
<circle cx="279.0" cy="48.0" r="0.56"/>
<circle cx="279.0" cy="69.0" r="0.94"/>
<circle cx="279.0" cy="90.0" r="1.4"/>
<circle cx="279.0" cy="111.0" r="1.92"/>
<circle cx="279.0" cy="132.0" r="2.51"/>
<circle cx="279.0" cy="153.0" r="3.17"/>
<circle cx="279.0" cy="174.0" r="3.88"/>
<circle cx="279.0" cy="195.0" r="4.65"/>
<circle cx="279.0" cy="216.0" r="5.47"/>
<circle cx="279.0" cy="237.0" r="6.32"/>
<circle cx="279.0" cy="258.0" r="7.2"/>
<circle cx="279.0" cy="279.0" r="8.01"/>
<circle cx="279.0" cy="300.0" r="8.44"/>
<circle cx="279.0" cy="321.0" r="8.01"/>
<circle cx="279.0" cy="342.0" r="7.2"/>
<circle cx="279.0" cy="363.0" r="6.32"/>
<circle cx="279.0" cy="384.0" r="5.47"/>
<circle cx="279.0" cy="405.0" r="4.65"/>
<circle cx="279.0" cy="426.0" r="3.88"/>
<circle cx="279.0" cy="447.0" r="3.17"/>
<circle cx="279.0" cy="468.0" r="2.51"/>
<circle cx="279.0" cy="489.0" r="1.92"/>
<circle cx="279.0" cy="510.0" r="1.4"/>
<circle cx="279.0" cy="531.0" r="0.94"/>
<circle cx="279.0" cy="552.0" r="0.56"/>
<circle cx="300.0" cy="48.0" r="0.58"/>
<circle cx="300.0" cy="69.0" r="0.96"/>
<circle cx="300.0" cy="90.0" r="1.42"/>
<circle cx="300.0" cy="111.0" r="1.95"/>
<circle cx="300.0" cy="132.0" r="2.55"/>
<circle cx="300.0" cy="153.0" r="3.22"/>
<circle cx="300.0" cy="174.0" r="3.94"/>
<circle cx="300.0" cy="195.0" r="4.73"/>
<circle cx="300.0" cy="216.0" r="5.57"/>
<circle cx="300.0" cy="237.0" r="6.47"/>
<circle cx="300.0" cy="258.0" r="7.43"/>
<circle cx="300.0" cy="279.0" r="8.44"/>
<circle cx="300.0" cy="300.0" r="9.5"/>
<circle cx="300.0" cy="321.0" r="8.44"/>
<circle cx="300.0" cy="342.0" r="7.43"/>
<circle cx="300.0" cy="363.0" r="6.47"/>
<circle cx="300.0" cy="384.0" r="5.57"/>
<circle cx="300.0" cy="405.0" r="4.73"/>
<circle cx="300.0" cy="426.0" r="3.94"/>
<circle cx="300.0" cy="447.0" r="3.22"/>
<circle cx="300.0" cy="468.0" r="2.55"/>
<circle cx="300.0" cy="489.0" r="1.95"/>
<circle cx="300.0" cy="510.0" r="1.42"/>
<circle cx="300.0" cy="531.0" r="0.96"/>
<circle cx="300.0" cy="552.0" r="0.58"/>
<circle cx="321.0" cy="48.0" r="0.56"/>
<circle cx="321.0" cy="69.0" r="0.94"/>
<circle cx="321.0" cy="90.0" r="1.4"/>
<circle cx="321.0" cy="111.0" r="1.92"/>
<circle cx="321.0" cy="132.0" r="2.51"/>
<circle cx="321.0" cy="153.0" r="3.17"/>
<circle cx="321.0" cy="174.0" r="3.88"/>
<circle cx="321.0" cy="195.0" r="4.65"/>
<circle cx="321.0" cy="216.0" r="5.47"/>
<circle cx="321.0" cy="237.0" r="6.32"/>
<circle cx="321.0" cy="258.0" r="7.2"/>
<circle cx="321.0" cy="279.0" r="8.01"/>
<circle cx="321.0" cy="300.0" r="8.44"/>
<circle cx="321.0" cy="321.0" r="8.01"/>
<circle cx="321.0" cy="342.0" r="7.2"/>
<circle cx="321.0" cy="363.0" r="6.32"/>
<circle cx="321.0" cy="384.0" r="5.47"/>
<circle cx="321.0" cy="405.0" r="4.65"/>
<circle cx="321.0" cy="426.0" r="3.88"/>
<circle cx="321.0" cy="447.0" r="3.17"/>
<circle cx="321.0" cy="468.0" r="2.51"/>
<circle cx="321.0" cy="489.0" r="1.92"/>
<circle cx="321.0" cy="510.0" r="1.4"/>
<circle cx="321.0" cy="531.0" r="0.94"/>
<circle cx="321.0" cy="552.0" r="0.56"/>
<circle cx="342.0" cy="48.0" r="0.52"/>
<circle cx="342.0" cy="69.0" r="0.88"/>
<circle cx="342.0" cy="90.0" r="1.32"/>
<circle cx="342.0" cy="111.0" r="1.83"/>
<circle cx="342.0" cy="132.0" r="2.4"/>
<circle cx="342.0" cy="153.0" r="3.02"/>
<circle cx="342.0" cy="174.0" r="3.7"/>
<circle cx="342.0" cy="195.0" r="4.42"/>
<circle cx="342.0" cy="216.0" r="5.17"/>
<circle cx="342.0" cy="237.0" r="5.92"/>
<circle cx="342.0" cy="258.0" r="6.63"/>
<circle cx="342.0" cy="279.0" r="7.2"/>
<circle cx="342.0" cy="300.0" r="7.43"/>
<circle cx="342.0" cy="321.0" r="7.2"/>
<circle cx="342.0" cy="342.0" r="6.63"/>
<circle cx="342.0" cy="363.0" r="5.92"/>
<circle cx="342.0" cy="384.0" r="5.17"/>
<circle cx="342.0" cy="405.0" r="4.42"/>
<circle cx="342.0" cy="426.0" r="3.7"/>
<circle cx="342.0" cy="447.0" r="3.02"/>
<circle cx="342.0" cy="468.0" r="2.4"/>
<circle cx="342.0" cy="489.0" r="1.83"/>
<circle cx="342.0" cy="510.0" r="1.32"/>
<circle cx="342.0" cy="531.0" r="0.88"/>
<circle cx="342.0" cy="552.0" r="0.52"/>
<circle cx="363.0" cy="48.0" r="0.46"/>
<circle cx="363.0" cy="69.0" r="0.8"/>
<circle cx="363.0" cy="90.0" r="1.21"/>
<circle cx="363.0" cy="111.0" r="1.68"/>
<circle cx="363.0" cy="132.0" r="2.22"/>
<circle cx="363.0" cy="153.0" r="2.8"/>
<circle cx="363.0" cy="174.0" r="3.42"/>
<circle cx="363.0" cy="195.0" r="4.07"/>
<circle cx="363.0" cy="216.0" r="4.73"/>
<circle cx="363.0" cy="237.0" r="5.36"/>
<circle cx="363.0" cy="258.0" r="5.92"/>
<circle cx="363.0" cy="279.0" r="6.32"/>
<circle cx="363.0" cy="300.0" r="6.47"/>
<circle cx="363.0" cy="321.0" r="6.32"/>
<circle cx="363.0" cy="342.0" r="5.92"/>
<circle cx="363.0" cy="363.0" r="5.36"/>
<circle cx="363.0" cy="384.0" r="4.73"/>
<circle cx="363.0" cy="405.0" r="4.07"/>
<circle cx="363.0" cy="426.0" r="3.42"/>
<circle cx="363.0" cy="447.0" r="2.8"/>
<circle cx="363.0" cy="468.0" r="2.22"/>
<circle cx="363.0" cy="489.0" r="1.68"/>
<circle cx="363.0" cy="510.0" r="1.21"/>
<circle cx="363.0" cy="531.0" r="0.8"/>
<circle cx="363.0" cy="552.0" r="0.46"/>
<circle cx="384.0" cy="69.0" r="0.68"/>
<circle cx="384.0" cy="90.0" r="1.06"/>
<circle cx="384.0" cy="111.0" r="1.5"/>
<circle cx="384.0" cy="132.0" r="1.98"/>
<circle cx="384.0" cy="153.0" r="2.51"/>
<circle cx="384.0" cy="174.0" r="3.07"/>
<circle cx="384.0" cy="195.0" r="3.64"/>
<circle cx="384.0" cy="216.0" r="4.21"/>
<circle cx="384.0" cy="237.0" r="4.73"/>
<circle cx="384.0" cy="258.0" r="5.17"/>
<circle cx="384.0" cy="279.0" r="5.47"/>
<circle cx="384.0" cy="300.0" r="5.57"/>
<circle cx="384.0" cy="321.0" r="5.47"/>
<circle cx="384.0" cy="342.0" r="5.17"/>
<circle cx="384.0" cy="363.0" r="4.73"/>
<circle cx="384.0" cy="384.0" r="4.21"/>
<circle cx="384.0" cy="405.0" r="3.64"/>
<circle cx="384.0" cy="426.0" r="3.07"/>
<circle cx="384.0" cy="447.0" r="2.51"/>
<circle cx="384.0" cy="468.0" r="1.98"/>
<circle cx="384.0" cy="489.0" r="1.5"/>
<circle cx="384.0" cy="510.0" r="1.06"/>
<circle cx="384.0" cy="531.0" r="0.68"/>
<circle cx="405.0" cy="69.0" r="0.55"/>
<circle cx="405.0" cy="90.0" r="0.88"/>
<circle cx="405.0" cy="111.0" r="1.28"/>
<circle cx="405.0" cy="132.0" r="1.71"/>
<circle cx="405.0" cy="153.0" r="2.18"/>
<circle cx="405.0" cy="174.0" r="2.67"/>
<circle cx="405.0" cy="195.0" r="3.17"/>
<circle cx="405.0" cy="216.0" r="3.64"/>
<circle cx="405.0" cy="237.0" r="4.07"/>
<circle cx="405.0" cy="258.0" r="4.42"/>
<circle cx="405.0" cy="279.0" r="4.65"/>
<circle cx="405.0" cy="300.0" r="4.73"/>
<circle cx="405.0" cy="321.0" r="4.65"/>
<circle cx="405.0" cy="342.0" r="4.42"/>
<circle cx="405.0" cy="363.0" r="4.07"/>
<circle cx="405.0" cy="384.0" r="3.64"/>
<circle cx="405.0" cy="405.0" r="3.17"/>
<circle cx="405.0" cy="426.0" r="2.67"/>
<circle cx="405.0" cy="447.0" r="2.18"/>
<circle cx="405.0" cy="468.0" r="1.71"/>
<circle cx="405.0" cy="489.0" r="1.28"/>
<circle cx="405.0" cy="510.0" r="0.88"/>
<circle cx="405.0" cy="531.0" r="0.55"/>
<circle cx="426.0" cy="69.0" r="0.41"/>
<circle cx="426.0" cy="90.0" r="0.7"/>
<circle cx="426.0" cy="111.0" r="1.04"/>
<circle cx="426.0" cy="132.0" r="1.42"/>
<circle cx="426.0" cy="153.0" r="1.83"/>
<circle cx="426.0" cy="174.0" r="2.25"/>
<circle cx="426.0" cy="195.0" r="2.67"/>
<circle cx="426.0" cy="216.0" r="3.07"/>
<circle cx="426.0" cy="237.0" r="3.42"/>
<circle cx="426.0" cy="258.0" r="3.7"/>
<circle cx="426.0" cy="279.0" r="3.88"/>
<circle cx="426.0" cy="300.0" r="3.94"/>
<circle cx="426.0" cy="321.0" r="3.88"/>
<circle cx="426.0" cy="342.0" r="3.7"/>
<circle cx="426.0" cy="363.0" r="3.42"/>
<circle cx="426.0" cy="384.0" r="3.07"/>
<circle cx="426.0" cy="405.0" r="2.67"/>
<circle cx="426.0" cy="426.0" r="2.25"/>
<circle cx="426.0" cy="447.0" r="1.83"/>
<circle cx="426.0" cy="468.0" r="1.42"/>
<circle cx="426.0" cy="489.0" r="1.04"/>
<circle cx="426.0" cy="510.0" r="0.7"/>
<circle cx="426.0" cy="531.0" r="0.41"/>
<circle cx="447.0" cy="90.0" r="0.51"/>
<circle cx="447.0" cy="111.0" r="0.8"/>
<circle cx="447.0" cy="132.0" r="1.12"/>
<circle cx="447.0" cy="153.0" r="1.47"/>
<circle cx="447.0" cy="174.0" r="1.83"/>
<circle cx="447.0" cy="195.0" r="2.18"/>
<circle cx="447.0" cy="216.0" r="2.51"/>
<circle cx="447.0" cy="237.0" r="2.8"/>
<circle cx="447.0" cy="258.0" r="3.02"/>
<circle cx="447.0" cy="279.0" r="3.17"/>
<circle cx="447.0" cy="300.0" r="3.22"/>
<circle cx="447.0" cy="321.0" r="3.17"/>
<circle cx="447.0" cy="342.0" r="3.02"/>
<circle cx="447.0" cy="363.0" r="2.8"/>
<circle cx="447.0" cy="384.0" r="2.51"/>
<circle cx="447.0" cy="405.0" r="2.18"/>
<circle cx="447.0" cy="426.0" r="1.83"/>
<circle cx="447.0" cy="447.0" r="1.47"/>
<circle cx="447.0" cy="468.0" r="1.12"/>
<circle cx="447.0" cy="489.0" r="0.8"/>
<circle cx="447.0" cy="510.0" r="0.51"/>
<circle cx="468.0" cy="111.0" r="0.56"/>
<circle cx="468.0" cy="132.0" r="0.83"/>
<circle cx="468.0" cy="153.0" r="1.12"/>
<circle cx="468.0" cy="174.0" r="1.42"/>
<circle cx="468.0" cy="195.0" r="1.71"/>
<circle cx="468.0" cy="216.0" r="1.98"/>
<circle cx="468.0" cy="237.0" r="2.22"/>
<circle cx="468.0" cy="258.0" r="2.4"/>
<circle cx="468.0" cy="279.0" r="2.51"/>
<circle cx="468.0" cy="300.0" r="2.55"/>
<circle cx="468.0" cy="321.0" r="2.51"/>
<circle cx="468.0" cy="342.0" r="2.4"/>
<circle cx="468.0" cy="363.0" r="2.22"/>
<circle cx="468.0" cy="384.0" r="1.98"/>
<circle cx="468.0" cy="405.0" r="1.71"/>
<circle cx="468.0" cy="426.0" r="1.42"/>
<circle cx="468.0" cy="447.0" r="1.12"/>
<circle cx="468.0" cy="468.0" r="0.83"/>
<circle cx="468.0" cy="489.0" r="0.56"/>
<circle cx="489.0" cy="132.0" r="0.56"/>
<circle cx="489.0" cy="153.0" r="0.8"/>
<circle cx="489.0" cy="174.0" r="1.04"/>
<circle cx="489.0" cy="195.0" r="1.28"/>
<circle cx="489.0" cy="216.0" r="1.5"/>
<circle cx="489.0" cy="237.0" r="1.68"/>
<circle cx="489.0" cy="258.0" r="1.83"/>
<circle cx="489.0" cy="279.0" r="1.92"/>
<circle cx="489.0" cy="300.0" r="1.95"/>
<circle cx="489.0" cy="321.0" r="1.92"/>
<circle cx="489.0" cy="342.0" r="1.83"/>
<circle cx="489.0" cy="363.0" r="1.68"/>
<circle cx="489.0" cy="384.0" r="1.5"/>
<circle cx="489.0" cy="405.0" r="1.28"/>
<circle cx="489.0" cy="426.0" r="1.04"/>
<circle cx="489.0" cy="447.0" r="0.8"/>
<circle cx="489.0" cy="468.0" r="0.56"/>
<circle cx="510.0" cy="153.0" r="0.51"/>
<circle cx="510.0" cy="174.0" r="0.7"/>
<circle cx="510.0" cy="195.0" r="0.88"/>
<circle cx="510.0" cy="216.0" r="1.06"/>
<circle cx="510.0" cy="237.0" r="1.21"/>
<circle cx="510.0" cy="258.0" r="1.32"/>
<circle cx="510.0" cy="279.0" r="1.4"/>
<circle cx="510.0" cy="300.0" r="1.42"/>
<circle cx="510.0" cy="321.0" r="1.4"/>
<circle cx="510.0" cy="342.0" r="1.32"/>
<circle cx="510.0" cy="363.0" r="1.21"/>
<circle cx="510.0" cy="384.0" r="1.06"/>
<circle cx="510.0" cy="405.0" r="0.88"/>
<circle cx="510.0" cy="426.0" r="0.7"/>
<circle cx="510.0" cy="447.0" r="0.51"/>
<circle cx="531.0" cy="174.0" r="0.41"/>
<circle cx="531.0" cy="195.0" r="0.55"/>
<circle cx="531.0" cy="216.0" r="0.68"/>
<circle cx="531.0" cy="237.0" r="0.8"/>
<circle cx="531.0" cy="258.0" r="0.88"/>
<circle cx="531.0" cy="279.0" r="0.94"/>
<circle cx="531.0" cy="300.0" r="0.96"/>
<circle cx="531.0" cy="321.0" r="0.94"/>
<circle cx="531.0" cy="342.0" r="0.88"/>
<circle cx="531.0" cy="363.0" r="0.8"/>
<circle cx="531.0" cy="384.0" r="0.68"/>
<circle cx="531.0" cy="405.0" r="0.55"/>
<circle cx="531.0" cy="426.0" r="0.41"/>
<circle cx="552.0" cy="237.0" r="0.46"/>
<circle cx="552.0" cy="258.0" r="0.52"/>
<circle cx="552.0" cy="279.0" r="0.56"/>
<circle cx="552.0" cy="300.0" r="0.58"/>
<circle cx="552.0" cy="321.0" r="0.56"/>
<circle cx="552.0" cy="342.0" r="0.52"/>
<circle cx="552.0" cy="363.0" r="0.46"/>
</g>
</svg>
